<?xml version="1.0" encoding="UTF-8"?>
<?xml-stylesheet href="https://cdnjs.cloudflare.com/ajax/libs/font-awesome/6.6.0/css/all.min.css" type="text/css"?>
<svg aria-roledescription="gitGraph" role="graphics-document document" viewBox="-170.109375 -34.95000076293945 878.109375 562.5205688476562" style="max-width: 100%;" xmlns="http://www.w3.org/2000/svg" width="100%" id="graph-div" height="100%" xmlns:xlink="http://www.w3.org/1999/xlink"><style>#graph-div{font-family:"trebuchet ms",verdana,arial,sans-serif;font-size:16px;fill:#333;}#graph-div .error-icon{fill:#552222;}#graph-div .error-text{fill:#552222;stroke:#552222;}#graph-div .edge-thickness-normal{stroke-width:1px;}#graph-div .edge-thickness-thick{stroke-width:3.5px;}#graph-div .edge-pattern-solid{stroke-dasharray:0;}#graph-div .edge-thickness-invisible{stroke-width:0;fill:none;}#graph-div .edge-pattern-dashed{stroke-dasharray:3;}#graph-div .edge-pattern-dotted{stroke-dasharray:2;}#graph-div .marker{fill:#333333;stroke:#333333;}#graph-div .marker.cross{stroke:#333333;}#graph-div svg{font-family:"trebuchet ms",verdana,arial,sans-serif;font-size:16px;}#graph-div p{margin:0;}#graph-div .commit-id,#graph-div .commit-msg,#graph-div .branch-label{fill:lightgrey;color:lightgrey;font-family:'trebuchet ms',verdana,arial,sans-serif;font-family:var(--mermaid-font-family);}#graph-div .branch-label0{fill:#ffffff;}#graph-div .commit0{stroke:hsl(240, 100%, 46.2745098039%);fill:hsl(240, 100%, 46.2745098039%);}#graph-div .commit-highlight0{stroke:hsl(60, 100%, 3.7254901961%);fill:hsl(60, 100%, 3.7254901961%);}#graph-div .label0{fill:hsl(240, 100%, 46.2745098039%);}#graph-div .arrow0{stroke:hsl(240, 100%, 46.2745098039%);}#graph-div .branch-label1{fill:black;}#graph-div .commit1{stroke:hsl(60, 100%, 43.5294117647%);fill:hsl(60, 100%, 43.5294117647%);}#graph-div .commit-highlight1{stroke:rgb(0, 0, 160.5);fill:rgb(0, 0, 160.5);}#graph-div .label1{fill:hsl(60, 100%, 43.5294117647%);}#graph-div .arrow1{stroke:hsl(60, 100%, 43.5294117647%);}#graph-div .branch-label2{fill:black;}#graph-div .commit2{stroke:hsl(80, 100%, 46.2745098039%);fill:hsl(80, 100%, 46.2745098039%);}#graph-div .commit-highlight2{stroke:rgb(48.8333333334, 0, 146.5000000001);fill:rgb(48.8333333334, 0, 146.5000000001);}#graph-div .label2{fill:hsl(80, 100%, 46.2745098039%);}#graph-div .arrow2{stroke:hsl(80, 100%, 46.2745098039%);}#graph-div .branch-label3{fill:#ffffff;}#graph-div .commit3{stroke:hsl(210, 100%, 46.2745098039%);fill:hsl(210, 100%, 46.2745098039%);}#graph-div .commit-highlight3{stroke:rgb(146.5000000001, 73.2500000001, 0);fill:rgb(146.5000000001, 73.2500000001, 0);}#graph-div .label3{fill:hsl(210, 100%, 46.2745098039%);}#graph-div .arrow3{stroke:hsl(210, 100%, 46.2745098039%);}#graph-div .branch-label4{fill:black;}#graph-div .commit4{stroke:hsl(180, 100%, 46.2745098039%);fill:hsl(180, 100%, 46.2745098039%);}#graph-div .commit-highlight4{stroke:rgb(146.5000000001, 0, 0);fill:rgb(146.5000000001, 0, 0);}#graph-div .label4{fill:hsl(180, 100%, 46.2745098039%);}#graph-div .arrow4{stroke:hsl(180, 100%, 46.2745098039%);}#graph-div .branch-label5{fill:black;}#graph-div .commit5{stroke:hsl(150, 100%, 46.2745098039%);fill:hsl(150, 100%, 46.2745098039%);}#graph-div .commit-highlight5{stroke:rgb(146.5000000001, 0, 73.2500000001);fill:rgb(146.5000000001, 0, 73.2500000001);}#graph-div .label5{fill:hsl(150, 100%, 46.2745098039%);}#graph-div .arrow5{stroke:hsl(150, 100%, 46.2745098039%);}#graph-div .branch-label6{fill:black;}#graph-div .commit6{stroke:hsl(300, 100%, 46.2745098039%);fill:hsl(300, 100%, 46.2745098039%);}#graph-div .commit-highlight6{stroke:rgb(0, 146.5000000001, 0);fill:rgb(0, 146.5000000001, 0);}#graph-div .label6{fill:hsl(300, 100%, 46.2745098039%);}#graph-div .arrow6{stroke:hsl(300, 100%, 46.2745098039%);}#graph-div .branch-label7{fill:black;}#graph-div .commit7{stroke:hsl(0, 100%, 46.2745098039%);fill:hsl(0, 100%, 46.2745098039%);}#graph-div .commit-highlight7{stroke:rgb(0, 146.5000000001, 146.5000000001);fill:rgb(0, 146.5000000001, 146.5000000001);}#graph-div .label7{fill:hsl(0, 100%, 46.2745098039%);}#graph-div .arrow7{stroke:hsl(0, 100%, 46.2745098039%);}#graph-div .branch{stroke-width:1;stroke:#333333;stroke-dasharray:2;}#graph-div .commit-label{font-size:10px;fill:#000021;}#graph-div .commit-label-bkg{font-size:10px;fill:#ffffde;opacity:0.5;}#graph-div .tag-label{font-size:10px;fill:#131300;}#graph-div .tag-label-bkg{fill:#ECECFF;stroke:hsl(240, 60%, 86.2745098039%);}#graph-div .tag-hole{fill:#333;}#graph-div .commit-merge{stroke:#ECECFF;fill:#ECECFF;}#graph-div .commit-reverse{stroke:#ECECFF;fill:#ECECFF;stroke-width:3;}#graph-div .commit-highlight-inner{stroke:#ECECFF;fill:#ECECFF;}#graph-div .arrow{stroke-width:8;stroke-linecap:round;fill:none;}#graph-div .gitTitleText{text-anchor:middle;font-size:18px;fill:#333;}#graph-div :root{--mermaid-font-family:"trebuchet ms",verdana,arial,sans-serif;}</style><g></g><g class="commit-bullets"></g><g class="commit-labels"></g><g><line class="branch branch0" y2="0" x2="700" y1="0" x1="0"></line><rect transform="translate(-19, -9.25)" height="22.5" width="52.9921875" y="-1.25" x="-68.9921875" ry="4" rx="4" class="branchLabelBkg label0"></rect><g class="branchLabel"><g transform="translate(-78.9921875, -10.25)" class="label branch-label0"><text><tspan class="row" x="0" dy="1em" xml:space="preserve">main</tspan></text></g></g><line class="branch branch1" y2="90" x2="700" y1="90" x1="0"></line><rect transform="translate(-19, 80.75)" height="22.5" width="74.421875" y="-1.25" x="-90.421875" ry="4" rx="4" class="branchLabelBkg label1"></rect><g class="branchLabel"><g transform="translate(-100.421875, 79.75)" class="label branch-label1"><text><tspan class="row" x="0" dy="1em" xml:space="preserve">develop</tspan></text></g></g><line class="branch branch2" y2="180" x2="700" y1="180" x1="0"></line><rect transform="translate(-19, 170.75)" height="22.5" width="114.109375" y="-1.25" x="-130.109375" ry="4" rx="4" class="branchLabelBkg label2"></rect><g class="branchLabel"><g transform="translate(-140.109375, 169.75)" class="label branch-label2"><text><tspan class="row" x="0" dy="1em" xml:space="preserve">feature/login</tspan></text></g></g><line class="branch branch3" y2="270" x2="700" y1="270" x1="0"></line><rect transform="translate(-19, 260.75)" height="22.5" width="127.109375" y="-1.25" x="-143.109375" ry="4" rx="4" class="branchLabelBkg label3"></rect><g class="branchLabel"><g transform="translate(-153.109375, 259.75)" class="label branch-label3"><text><tspan class="row" x="0" dy="1em" xml:space="preserve">feature/profile</tspan></text></g></g><line class="branch branch4" y2="360" x2="700" y1="360" x1="0"></line><rect transform="translate(-19, 350.75)" height="22.5" width="118.2109375" y="-1.25" x="-134.2109375" ry="4" rx="4" class="branchLabelBkg label4"></rect><g class="branchLabel"><g transform="translate(-144.2109375, 349.75)" class="label branch-label4"><text><tspan class="row" x="0" dy="1em" xml:space="preserve">bugfix/profile</tspan></text></g></g><line class="branch branch5" y2="450" x2="700" y1="450" x1="0"></line><rect transform="translate(-19, 440.75)" height="22.5" width="125.4375" y="-1.25" x="-141.4375" ry="4" rx="4" class="branchLabelBkg label5"></rect><g class="branchLabel"><g transform="translate(-151.4375, 439.75)" class="label branch-label5"><text><tspan class="row" x="0" dy="1em" xml:space="preserve">hotfix/security</tspan></text></g></g></g><g class="commit-arrows"><path class="arrow arrow1" d="M 10 0 L 10 70 A 20 20, 0, 0, 0, 30 90 L 60 90"></path><path class="arrow arrow2" d="M 60 90 L 60 160 A 20 20, 0, 0, 0, 80 180 L 110 180"></path><path class="arrow arrow2" d="M 110 180 L 160 180"></path><path class="arrow arrow1" d="M 60 90 L 210 90"></path><path class="arrow arrow2" d="M 160 180 L 190 180 A 20 20, 0, 0, 0, 210 160 L 210 90"></path><path class="arrow arrow3" d="M 210 90 L 210 250 A 20 20, 0, 0, 0, 230 270 L 260 270"></path><path class="arrow arrow4" d="M 260 270 L 260 340 A 20 20, 0, 0, 0, 280 360 L 310 360"></path><path class="arrow arrow3" d="M 260 270 L 360 270"></path><path class="arrow arrow4" d="M 310 360 L 340 360 A 20 20, 0, 0, 0, 360 340 L 360 270"></path><path class="arrow arrow3" d="M 360 270 L 410 270"></path><path class="arrow arrow1" d="M 210 90 L 460 90"></path><path class="arrow arrow3" d="M 410 270 L 440 270 A 20 20, 0, 0, 0, 460 250 L 460 90"></path><path class="arrow arrow0" d="M 10 0 L 510 0"></path><path class="arrow arrow1" d="M 460 90 L 490 90 A 20 20, 0, 0, 0, 510 70 L 510 0"></path><path class="arrow arrow5" d="M 510 0 L 510 430 A 20 20, 0, 0, 0, 530 450 L 560 450"></path><path class="arrow arrow0" d="M 510 0 L 610 0"></path><path class="arrow arrow5" d="M 560 450 L 590 450 A 20 20, 0, 0, 0, 610 430 L 610 0"></path><path class="arrow arrow1" d="M 460 90 L 660 90"></path><path class="arrow arrow5" d="M 560 450 L 640 450 A 20 20, 0, 0, 0, 660 430 L 660 90"></path></g><g class="commit-bullets"><circle class="commit initial commit0" r="10" cy="0" cx="10"></circle><circle class="commit dev-start commit1" r="10" cy="90" cx="60"></circle><circle class="commit login-1 commit2" r="10" cy="180" cx="110"></circle><circle class="commit login-2 commit2" r="10" cy="180" cx="160"></circle><circle class="commit 4-7b6320b commit1" r="9" cy="90" cx="210"></circle><circle class="commit commit-merge 4-7b6320b commit1" r="6" cy="90" cx="210"></circle><circle class="commit profile-1 commit3" r="10" cy="270" cx="260"></circle><circle class="commit fix-profile commit4" r="10" cy="360" cx="310"></circle><circle class="commit 7-9020bd0 commit3" r="9" cy="270" cx="360"></circle><circle class="commit commit-merge 7-9020bd0 commit3" r="6" cy="270" cx="360"></circle><circle class="commit profile-2 commit3" r="10" cy="270" cx="410"></circle><circle class="commit 9-fa68324 commit1" r="9" cy="90" cx="460"></circle><circle class="commit commit-merge 9-fa68324 commit1" r="6" cy="90" cx="460"></circle><circle class="commit 10-e6a1c32 commit0" r="9" cy="0" cx="510"></circle><circle class="commit commit-merge 10-e6a1c32 commit0" r="6" cy="0" cx="510"></circle><circle class="commit security-patch commit5" r="10" cy="450" cx="560"></circle><circle class="commit 12-8b8dbe8 commit0" r="9" cy="0" cx="610"></circle><circle class="commit commit-merge 12-8b8dbe8 commit0" r="6" cy="0" cx="610"></circle><circle class="commit 13-222757b commit1" r="9" cy="90" cx="660"></circle><circle class="commit commit-merge 13-222757b commit1" r="6" cy="90" cx="660"></circle></g><g class="commit-labels"><g transform="translate(-21.25125, 18.903750000000002) rotate(-45, 0, 0)"><rect height="15.5" width="30.1875" y="13.5" x="-5.09375" class="commit-label-bkg"></rect><text class="commit-label" y="25" x="-3.09375">initial</text></g><g transform="translate(-26.773125, 23.844375) rotate(-45, 50, 90)"><rect height="15.5" width="44.71875" y="103.5" x="37.640625" class="commit-label-bkg"></rect><text class="commit-label" y="115" x="39.640625">dev-start</text></g><g transform="translate(-22.91671875, 20.39390625) rotate(-45, 100, 180)"><rect height="15.55078125" width="34.5703125" y="193.5" x="92.71484375" class="commit-label-bkg"></rect><text class="commit-label" y="205" x="94.71484375">login-1</text></g><g transform="translate(-22.91671875, 20.39390625) rotate(-45, 150, 180)"><rect height="15.55078125" width="34.5703125" y="193.5" x="142.71484375" class="commit-label-bkg"></rect><text class="commit-label" y="205" x="144.71484375">login-2</text></g><g transform="translate(-26.00421875, 23.15640625) rotate(-45, 250, 270)"><rect height="15.55078125" width="42.6953125" y="283.5" x="238.65234375" class="commit-label-bkg"></rect><text class="commit-label" y="295" x="240.65234375">profile-1</text></g><g transform="translate(-28.40296875, 25.30265625) rotate(-45, 300, 360)"><rect height="15.55078125" width="49.0078125" y="373.5" x="285.49609375" class="commit-label-bkg"></rect><text class="commit-label" y="385" x="287.49609375">fix-profile</text></g><g transform="translate(-26.00421875, 23.15640625) rotate(-45, 400, 270)"><rect height="15.55078125" width="42.6953125" y="283.5" x="388.65234375" class="commit-label-bkg"></rect><text class="commit-label" y="295" x="390.65234375">profile-2</text></g><polygon points="484.01171875,-17.2  
      484.01171875,-21.2
      492.01171875,-26.95
      527.98828125,-26.95
      527.98828125,-11.45
      492.01171875,-11.45" class="tag-label-bkg"></polygon><circle class="tag-hole" r="1.5" cx="488.01171875" cy="-19.2"></circle><text x="496.01171875" class="tag-label" y="-16">v1.0.0</text><g transform="translate(-35.78328125, 31.90609375) rotate(-45, 550, 450)"><rect height="15.55078125" width="68.4296875" y="463.5" x="525.78515625" class="commit-label-bkg"></rect><text class="commit-label" y="475" x="527.78515625">security-patch</text></g><polygon points="584.01171875,-17.2  
      584.01171875,-21.2
      592.01171875,-26.95
      627.98828125,-26.95
      627.98828125,-11.45
      592.01171875,-11.45" class="tag-label-bkg"></polygon><circle class="tag-hole" r="1.5" cx="588.01171875" cy="-19.2"></circle><text x="596.01171875" class="tag-label" y="-16">v1.0.1</text></g></svg>